<svg data-v-423bf9ae="" xmlns="http://www.w3.org/2000/svg" viewBox="0 0 244 100" class="iconLeft"><!----><!----><!----><g data-v-423bf9ae="" id="89c13e5e-3920-4171-9c7d-742e27b88b3a" fill="black" transform="matrix(5.454545497894287,0,0,5.454545497894287,90.36140441894531,21.878625869750977)"><path d="M7.27 10.61C8.08 10.61 8.95 10.01 9.69 9.23C9.77 9.13 9.81 9.02 9.81 8.92C9.81 8.78 9.73 8.65 9.58 8.58C9.25 8.88 8.60 9.28 8.15 9.28C7.27 9.28 6.83 7.52 6.58 5.67C7.87 4.87 8.75 3.43 8.75 2.16C8.75 0.84 7.80-0.28 5.33-0.28C2.60-0.28 0.45 0.64 0.45 2.30C0.45 3.00 0.87 3.63 1.58 3.63C1.78 3.63 1.97 3.58 2.18 3.49C2.02 3.29 1.90 3.04 1.90 2.67C1.90 1.62 2.70 0.39 5.05 0.39C6.47 0.39 7.03 1.25 7.03 2.27C7.03 3.74 5.88 5.53 4.44 5.64L5.42 1.02C5.25 0.91 5.01 0.84 4.76 0.84C4.27 0.84 3.74 1.06 3.60 1.71L1.62 10.43C1.78 10.54 2.04 10.61 2.37 10.61C2.88 10.61 3.43 10.37 3.57 9.72L4.30 6.30L4.49 6.30C4.66 6.30 4.83 6.29 4.98 6.27C5.21 8.34 5.80 10.61 7.27 10.61ZM16.84 10.61C17.65 10.61 18.52 10.01 19.26 9.23C19.35 9.13 19.39 9.02 19.39 8.92C19.39 8.78 19.31 8.65 19.15 8.58C18.83 8.88 18.17 9.28 17.72 9.28C16.84 9.28 16.41 7.52 16.16 5.67C17.44 4.87 18.33 3.43 18.33 2.16C18.33 0.84 17.37-0.28 14.91-0.28C12.18-0.28 10.02 0.64 10.02 2.30C10.02 3.00 10.44 3.63 11.16 3.63C11.35 3.63 11.55 3.58 11.76 3.49C11.59 3.29 11.48 3.04 11.48 2.67C11.48 1.62 12.28 0.39 14.63 0.39C16.04 0.39 16.60 1.25 16.60 2.27C16.60 3.74 15.46 5.53 14.01 5.64L14.99 1.02C14.83 0.91 14.59 0.84 14.34 0.84C13.85 0.84 13.31 1.06 13.17 1.71L11.20 10.43C11.35 10.54 11.62 10.61 11.94 10.61C12.46 10.61 13.01 10.37 13.15 9.72L13.87 6.30L14.07 6.30C14.24 6.30 14.41 6.29 14.56 6.27C14.78 8.34 15.37 10.61 16.84 10.61ZM21.06 2.86C21.06 1.27 22.22 0.56 23.21 0.56C23.27 0.56 23.34 0.57 23.41 0.59L21.18 10.43C21.34 10.54 21.60 10.61 21.92 10.61C22.44 10.61 22.99 10.37 23.13 9.72L24.93 1.20C25.54 1.47 26.15 1.72 26.61 1.72C27.62 1.72 28.29 0.87 27.99-0.39C26.38 0.32 25.03-0.28 23.48-0.28C22.15-0.28 19.60 0.21 19.60 2.51C19.60 3.18 20.02 3.81 20.75 3.81C20.93 3.81 21.13 3.77 21.34 3.67C21.14 3.44 21.06 3.09 21.06 2.86Z"></path></g><!----><g data-v-423bf9ae="" id="72b01772-4ab8-4282-8f46-7d39ed4e8e8e" transform="matrix(1.0514322519302368,0,0,1.0514322519302368,-15.196412086486816,-1.8867689371109009)" stroke="none" fill="cyan"><path d="M53.23 79.57l4.09 6.63q.33.54-.29.54H53a1 1 0 0 1-.91-.54l-3.66-5.9h-1.18v5.9q0 .54-.51.54H43.1a.48.48 0 0 1-.54-.54V67.51a.48.48 0 0 1 .54-.51h7.36a6.48 6.48 0 0 1 3.44.91 6 6 0 0 1 2.27 2.42 7.18 7.18 0 0 1 .78 3.34 6.48 6.48 0 0 1-.38 2.22 5.89 5.89 0 0 1-1 1.77 8.35 8.35 0 0 1-1.19 1.2 5.51 5.51 0 0 1-1.15.71zm-3.9-8.35h-2.08v4.85h2.08a3.15 3.15 0 0 0 2.14-.65 2.51 2.51 0 0 0 0-3.55 3.15 3.15 0 0 0-2.14-.65zm31.31-43.48H62.31A2.77 2.77 0 0 1 59.55 25V6.65a2.76 2.76 0 0 1 4.72-2L82.6 23a2.76 2.76 0 0 1-2 4.72zm-17.28-3.81h14.76L63.36 9.17zm17 73.4H19.67a4.3 4.3 0 0 1-4.3-4.3V7a4.3 4.3 0 0 1 4.3-4.3h40.79a4.27 4.27 0 0 1 3 1.26l19.9 19.83a4.33 4.33 0 0 1 1.26 3V93a4.3 4.3 0 0 1-4.29 4.33zM19.67 6.48a.49.49 0 0 0-.49.49V93a.49.49 0 0 0 .49.49h60.66a.49.49 0 0 0 .49-.49V26.83a.49.49 0 0 0-.14-.34L60.81 6.62a.48.48 0 0 0-.34-.14z"></path></g><!----></svg>